<svg width="100" height="100" viewBox="0 0 100 100" fill="none" xmlns="http://www.w3.org/2000/svg">
<path d="M72.9167 27.0835H72.9583M29.1667 8.3335H70.8333C82.3393 8.3335 91.6667 17.6609 91.6667 29.1668V70.8335C91.6667 82.3394 82.3393 91.6668 70.8333 91.6668H29.1667C17.6607 91.6668 8.33334 82.3394 8.33334 70.8335V29.1668C8.33334 17.6609 17.6607 8.3335 29.1667 8.3335ZM66.6667 47.3752C67.1809 50.8429 66.5886 54.3844 64.974 57.4961C63.3594 60.6077 60.8048 63.131 57.6735 64.7071C54.5421 66.2832 50.9935 66.8318 47.5325 66.2749C44.0714 65.7179 40.874 64.0838 38.3952 61.605C35.9163 59.1262 34.2822 55.9288 33.7253 52.4677C33.1684 49.0066 33.7169 45.4581 35.293 42.3267C36.8691 39.1954 39.3925 36.6407 42.5041 35.0262C45.6158 33.4116 49.1573 32.8193 52.625 33.3335C56.1622 33.858 59.4369 35.5063 61.9654 38.0348C64.4939 40.5633 66.1422 43.838 66.6667 47.3752Z" stroke="#1E1E1E" stroke-width="4" stroke-linecap="round" stroke-linejoin="round"/>
</svg>
